# xmcd CD database file
#
# Track frame offsets:
#	150
#	19689
#	40755
#	59390
#	71695
#	84143
#	97239
#	116142
#	132413
#	145837
#	169866
#	187832
#	215208
#	226388
#	249950
#	268596
#	288822
#	307766
#
# Disc length: 4333 seconds
#
# Revision: 0
# Processed by: cddbd v1.5.2PL0 Copyright (c) Steve Scherf et al.
# Submitted via: CDex 1.51
#
DISCID=fc10eb12
DTITLE=Dave Kelly - Solo Performances Live In Germany 1986-1989 CD 2
DYEAR=2016
DGENRE=Blues
TTITLE0=Death Letter
TTITLE1=No More Doggin'
TTITLE2=Come On In My Kitchen
TTITLE3=Down In The Bottom
TTITLE4=Key To The Highway
TTITLE5=Don`t Keep Me Hanging On This Way
TTITLE6=Love Is A Compromise
TTITLE7=Crossroads Blues
TTITLE8=Pick Poor Robin Clear
TTITLE9=Me And The Devil - Mailman
TTITLE10=Mean Old Frisco
TTITLE11=Little Red Rooster
TTITLE12=When The Levee Breaks
TTITLE13=Hard Time Killing Floor
TTITLE14=Few Short Lines
TTITLE15=Gael`s Blue
TTITLE16=That`s Alright
TTITLE17=Route 66
EXTD=YEAR: 2016
EXTT0=
EXTT1=
EXTT2=
EXTT3=
EXTT4=
EXTT5=
EXTT6=
EXTT7=
EXTT8=
EXTT9=
EXTT10=
EXTT11=
EXTT12=
EXTT13=
EXTT14=
EXTT15=
EXTT16=
EXTT17=
PLAYORDER=
